# xmcd
#
# Track frame offsets:
#	150
#	10840
#	30008
#	48927
#	75657
#	86467
#	104875
#	129088
#	152585
#	169774
#	194010
#	205024
#	224873
#	244472
#
# Disc length: 3457 seconds
#
# Revision: 0
# Processed by: cddbd v1.5.2PL0 Copyright (c) Steve Scherf et al.
# Submitted via: EasyCDDAExtractor 16.0.6.1
#
DISCID=b70d7f0e
DTITLE=Ψαραντώνης - Σαράντα δύο μεγ. επιτυχίες-Ψαραντώνης 2
DYEAR=2010
DGENRE=Κρητική
TTITLE0=Ψαραντώνης - Κρίνος [Ψαραντώνης]
TTITLE1=Ψαραντώνης - Μάννα, λούσε με [συρτός, Ψαραντώνης]
TTITLE2=Ψαραντώνης - Κάνει πως βλέπει αριστερά [Ψαραντώνης-Χαρ. Εμμ. Σκουλάς]
TTITLE3=Ψαραντώνης - Ο πόθος της λευτεριάς [ριζίτικο, διασκ. Ψαραντώνης]
TTITLE4=Ψαραντώνης - Γυρισμός [Ψαραντώνης]
TTITLE5=Ψαραντώνης - Όταν σε αναστοριθώ [συρτός, Ψαραντώνης]
TTITLE6=Ψαραντώνης - Το μερακλίδικο πουλί [Φουσταλιέρης-Μπερνιδάκης, δσκ. Ψαρ/
TTITLE6=νης-Μήτσος Σταυρ/άκης]
TTITLE7=Ψαραντώνης-χορωδία - Λευτεριά [αφ. Μ. Κατράκης, Μπάμπης Πραματευτάκης-
TTITLE7=Δημ. Αετουδάκης]
TTITLE8=Ψαραντώνης - Το όνειρο [ριζίτικο, διασκ. Ψαραντώνης]
TTITLE9=Ψαραντώνης - Πάντα ψηλά στέκει η κορφή [συρτός, παραδ., διασκ. Ψαραντώ
TTITLE9=νης]
TTITLE10=Ψαραντώνης - Λυράκια
TTITLE11=Ψαραντώνης - Όμορφο νιό εζύγωνε [ριζίτικο, διασκ. Ψαραντώνης]
TTITLE12=Ψαραντώνης-χορωδία - Το τραγούδι του γύφτου [Νίκος Μαστοράκης-ποίηση 
TTITLE12=Αλ. Παπαδιαμάντης]
TTITLE13=Ψαραντώνης-χορωδία - Τ' αγριμάκια [ριζίτικο, διασκ. Ψαραντώνης]
EXTD=
EXTT0=
EXTT1=
EXTT2=
EXTT3=
EXTT4=
EXTT5=
EXTT6=
EXTT7=
EXTT8=
EXTT9=
EXTT10=
EXTT11=
EXTT12=
EXTT13=
PLAYORDER=
